<svg xmlns="http://www.w3.org/2000/svg" viewBox="0 0 42 19" preserveAspectRatio="xMidYMin slice">
	<defs>
		<style>
	  		@font-face {
				font-family: "logo";
				src: url("Strjmono.ttf") format("truetype");
	    	}
			text {
    			text-align: center;
		    	font-family: "logo";
				fill: #000;
				paint-order: stroke fill;
			}
			.outline {
				text-shadow: 0 0 4em #ff0; /* ignored if one of the next two elements is set, apparently, compatibility only */
				-webkit-text-stroke: #ff0 0.125em; /* doesn't work in svg, apparently, compatibility only */
				stroke: #ff0;
				stroke-width: 0.125em;
				stroke-linecap: round;
			}
			.outlineless {
				/* A very small outline that prevents stray pixels */
				stroke: #000;
				stroke-width: 0.02em;
				stroke-linecap: round;
			}
	    	.tspan0 {
				position: relative;
    			z-index: 420;
	    	}
		    .tspan1 {
    			position: relative;
	    		z-index: 69;
		    }
  		</style>
  		<mask width="42" height="19" x="0" y="0" id="stars">
  			<rect width="100%" height="100%" fill="#fff" />
  			<use href="#mytext_outlineless" />
  			<!--
			<circle cx="14.362868727271614" cy="15.118476382464653" r="0.12318192092163277" fill="#000" />
			<circle cx="28.993870052656067" cy="10.230587106413594" r="0.09069932081535789" fill="#000" />
			<circle cx="3.4296507327027648" cy="18.60537339906566" r="0.07350010449788968" fill="#000" />
			<circle cx="28.50980987836069" cy="15.89154748529744" r="0.08409027152298927" fill="#000" />
			<circle cx="4.880838671568903" cy="13.751403622229128" r="0.11183065977060591" fill="#000" />
			<circle cx="7.979146497172434" cy="4.228308080897037" r="0.04248007237321014" fill="#000" />
			<circle cx="31.71223332135828" cy="5.282789581885165" r="0.006003890037173179" fill="#000" />
			<circle cx="41.68353332740239" cy="3.973735216731164" r="0.084748330994283" fill="#000" />
			<circle cx="2.0520329303404674" cy="10.621333089317439" r="0.025385339197459902" fill="#000" />
			<circle cx="20.67560610040617" cy="2.2647832991447774" r="0.09814490533674512" fill="#000" />
			<circle cx="11.689630228934924" cy="18.76212094324351" r="0.01835543528055812" fill="#000" />
			<circle cx="0.7535700289908971" cy="5.324925788373237" r="0.0054413700572081836" fill="#000" />
			<circle cx="38.880229352085436" cy="6.449106471317663" r="0.002401415980034932" fill="#000" />
			<circle cx="33.28861633647527" cy="7.860190507585722" r="0.07891777741576937" fill="#000" />
			<circle cx="22.182970418522082" cy="12.648688806972425" r="0.09215732471340807" fill="#000" />
			<circle cx="35.522195308792945" cy="9.63028526080483" r="0.10765504036305931" fill="#000" />
			<circle cx="0.3338513051763732" cy="14.48425797607515" r="0.08922281965111412" fill="#000" />
			<circle cx="41.76679980705488" cy="1.740299391781532" r="0.0015525258428371325" fill="#000" />
			<circle cx="33.39865030757774" cy="4.208888092820876" r="0.10134289932819879" fill="#000" />
			<circle cx="2.7093989482077547" cy="5.201065007242697" r="0.05687530703665747" fill="#000" />
			<circle cx="4.411036485950671" cy="10.276069362858426" r="0.0554885035827892" fill="#000" />
			<circle cx="29.02555954204196" cy="9.867244895630293" r="0.003173338297618733" fill="#000" />
			<circle cx="3.4477095118505616" cy="5.881835078174615" r="0.103105044586889" fill="#000" />
			<circle cx="2.2258285620044322" cy="15.433190474933358" r="0.039340467469774015" fill="#000" />
			<circle cx="36.290077629659365" cy="10.858756570471495" r="0.08052344201961242" fill="#000" />
			<circle cx="22.07469264833372" cy="3.003506732095461" r="0.004774976100410819" fill="#000" />
			<circle cx="29.16545712071394" cy="10.736069988918016" r="0.06517268766848114" fill="#000" />
			<circle cx="10.589158832533826" cy="14.652400098191235" r="0.049598729876211736" fill="#000" />
			<circle cx="0.611109081514571" cy="12.561565423621225" r="0.03213117623194682" fill="#000" />
			<circle cx="40.51069615529671" cy="14.748619928921507" r="0.03147241126994116" fill="#000" />
			<circle cx="11.879993092361339" cy="0.38301386626419676" r="0.1139048276755166" fill="#000" />
			<circle cx="23.07503455454275" cy="14.854373461302323" r="0.012067083080433721" fill="#000" />
			<circle cx="33.068294933787996" cy="15.314536667125246" r="0.08756240899771091" fill="#000" />
			<circle cx="28.002329615694368" cy="8.42435259867052" r="0.014107109372181598" fill="#000" />
			<circle cx="37.522335954557555" cy="2.0223277262375987" r="0.06015124607839058" fill="#000" />
			<circle cx="39.048067254744" cy="12.379401194710402" r="0.11469976159074041" fill="#000" />
			<circle cx="39.69302966014194" cy="17.303325555838185" r="0.023567379097133995" fill="#000" />
			<circle cx="37.77240081271771" cy="15.981256924364905" r="0.04167343567787837" fill="#000" />
			<circle cx="25.296468993871745" cy="11.508191395257612" r="0.009501921974646527" fill="#000" />
			<circle cx="25.51706843511439" cy="2.638881750178141" r="0.11896929275877374" fill="#000" />
			<circle cx="6.155832172808891" cy="9.015712395703053" r="0.12217915436842179" fill="#000" />
			<circle cx="15.722045385132784" cy="16.623522576690792" r="0.0566317691637436" fill="#000" />
			<circle cx="13.519540286627404" cy="4.025620444851654" r="0.08170877993749447" fill="#000" />
			<circle cx="24.7521195369501" cy="10.323220860944621" r="0.07292640872163203" fill="#000" />
			<circle cx="19.93719681714697" cy="1.2854370501175532" r="0.05022748887794343" fill="#000" />
			<circle cx="37.10160211184864" cy="4.104584160505184" r="0.04089756297960229" fill="#000" />
			<circle cx="36.9114148430133" cy="17.105977092484714" r="0.04745991808857229" fill="#000" />
			<circle cx="14.225430266020798" cy="9.369498894252526" r="0.06458713493271381" fill="#000" />
			<circle cx="10.662840715583753" cy="5.511388172786432" r="0.022263037168789704" fill="#000" />
			<circle cx="34.71099270976647" cy="13.069851029659343" r="0.0877737095636214" fill="#000" />
			<circle cx="28.720011986331595" cy="16.934742791998953" r="0.04052848349598914" fill="#000" />
			<circle cx="4.4381626515787795" cy="17.91742844095505" r="0.03965786882142561" fill="#000" />
			<circle cx="12.556424614203035" cy="12.034994482409466" r="0.04722525508087928" fill="#000" />
			<circle cx="37.704867219464035" cy="9.56273557959927" r="0.027853287754209616" fill="#000" />
			<circle cx="19.91399677708454" cy="14.974657551207093" r="0.0697776752364947" fill="#000" />
			<circle cx="23.694600747998432" cy="1.1219265924219761" r="0.08289505554732504" fill="#000" />
			<circle cx="41.206842463165195" cy="12.300351566615428" r="0.008040870236719094" fill="#000" />
			<circle cx="5.217067502108878" cy="8.946914085679913" r="0.0869324561892575" fill="#000" />
			<circle cx="2.5750289484271636" cy="14.65877961959386" r="0.012803656835955773" fill="#000" />
			<circle cx="12.88531189277669" cy="16.31991072814268" r="0.009119382992556713" fill="#000" />
			<circle cx="11.04260551477054" cy="16.150453490217764" r="0.11786877930414025" fill="#000" />
			<circle cx="15.602851786203765" cy="1.4979959891845542" r="0.10198789446415736" fill="#000" />
			<circle cx="36.39451378188765" cy="14.181752922630311" r="0.10564495638397617" fill="#000" />
			<circle cx="37.474323405333614" cy="13.296402716070922" r="0.07299822127230066" fill="#000" />
			<circle cx="34.307774723129164" cy="16.641424821433457" r="0.06959587981129908" fill="#000" />
			<circle cx="30.713052671718625" cy="3.286836699662951" r="0.06815208353486565" fill="#000" />
			<circle cx="25.525076393809265" cy="15.822715664565754" r="0.05862241649112833" fill="#000" />
			<circle cx="21.715737854985456" cy="15.207077753737213" r="0.08001899549129743" fill="#000" />
			<circle cx="32.925501545032915" cy="7.6778099625291025" r="0.00017822497699064577" fill="#000" />
			<circle cx="7.3204192524189695" cy="6.0702778302636995" r="0.014509301643517103" fill="#000" />
			<circle cx="0.8848697409836686" cy="16.15562765808636" r="0.00714783444463625" fill="#000" />
			<circle cx="29.942856205137662" cy="7.878198860195899" r="0.018148257135370327" fill="#000" />
			<circle cx="41.16418796946526" cy="16.17038183638537" r="0.03777856464236938" fill="#000" />
			<circle cx="22.027507205588357" cy="16.317542254183664" r="0.035227649838646735" fill="#000" />
			<circle cx="4.835813241496036" cy="9.030939663128413" r="0.027708819624674932" fill="#000" />
			<circle cx="9.74465606423345" cy="12.786136045246845" r="0.012993641584560539" fill="#000" />
			<circle cx="27.402324266968066" cy="2.234656892301795" r="0.00470936268015229" fill="#000" />
			<circle cx="3.392659958078161" cy="7.176129418110701" r="0.09506634868717968" fill="#000" />
			<circle cx="19.364411074859078" cy="18.767805457171914" r="0.08940939991920803" fill="#000" />
			<circle cx="15.936721562993506" cy="0.23670528128026513" r="0.012070003114717398" fill="#000" />
			<circle cx="17.925357501054627" cy="11.86641646139353" r="0.10598873641075199" fill="#000" />
			<circle cx="16.967956320143312" cy="8.03002900202261" r="0.11897842418410542" fill="#000" />
			<circle cx="38.97829935569422" cy="1.120703484959265" r="0.11963052446938693" fill="#000" />
			<circle cx="32.63040522747128" cy="10.969449506271163" r="0.04884232727521008" fill="#000" />
			<circle cx="36.38584950852814" cy="6.111570398219081" r="0.11046621376851387" fill="#000" />
			<circle cx="23.996748520584212" cy="16.240680148614285" r="0.03459845856475821" fill="#000" />
			<circle cx="15.379803954020977" cy="17.609071880515557" r="0.042684419910381674" fill="#000" />
			<circle cx="10.982975306669916" cy="12.80159767057201" r="0.022137398478105377" fill="#000" />
			<circle cx="38.53284508044015" cy="8.06186026718063" r="0.11559141612271867" fill="#000" />
			<circle cx="10.312699800444804" cy="18.8716244976154" r="0.08193209579725046" fill="#000" />
			<circle cx="7.974583254217117" cy="2.8520354042204636" r="0.06408569011674067" fill="#000" />
			<circle cx="16.970269901338774" cy="6.069205140269333" r="0.09603737777059533" fill="#000" />
			<circle cx="3.6213662684175936" cy="5.241430316471429" r="0.007540282425861175" fill="#000" />
			<circle cx="8.803972464943373" cy="2.25603390391146" r="0.020856010667997305" fill="#000" />
			<circle cx="25.37393479444068" cy="17.93506312503498" r="0.08422174660914997" fill="#000" />
			<circle cx="20.957046266806476" cy="6.491200147432993" r="0.035385555965871326" fill="#000" />
			<circle cx="27.442034610776822" cy="6.079764801456348" r="0.08262849148909299" fill="#000" />
			<circle cx="35.8912891193464" cy="18.865502977163445" r="0.11162385125369999" fill="#000" />
			<circle cx="19.750034498853243" cy="14.411281831921617" r="0.017104049684293687" fill="#000" />
			<circle cx="24.300654376655327" cy="11.765762862789462" r="0.002719976830390422" fill="#000" />
			<circle cx="3.851064936733386" cy="13.060540179434089" r="0.11515939417301028" fill="#000" />
			<circle cx="33.582297834840126" cy="9.01313783271961" r="0.10463875234537685" fill="#000" />
			<circle cx="26.87525084080218" cy="6.132703480805499" r="0.10900236301370324" fill="#000" />
			<circle cx="26.59208706865888" cy="2.233184325564921" r="0.11533556557749282" fill="#000" />
			<circle cx="29.511160712035053" cy="11.831419749259418" r="0.09657932535795298" fill="#000" />
			<circle cx="3.7870941241549234" cy="2.6869312455284606" r="0.10632028225172324" fill="#000" />
			<circle cx="28.526761053129064" cy="16.10596090637899" r="0.046536130107343726" fill="#000" />
			<circle cx="12.452137834699467" cy="14.35655610185855" r="0.020962014605848317" fill="#000" />
			<circle cx="22.962366524588898" cy="1.0326115842298722" r="0.10728141052601525" fill="#000" />
			<circle cx="7.348755025455498" cy="4.626011633415249" r="0.1201461555840311" fill="#000" />
			<circle cx="33.56847341578721" cy="12.211468928744017" r="0.11341122054801012" fill="#000" />
			<circle cx="18.00914691441943" cy="9.909128078558554" r="0.0878465244256473" fill="#000" />
			<circle cx="23.67439077951485" cy="8.633080626205029" r="0.04923309005750974" fill="#000" />
			<circle cx="21.63558163482641" cy="9.249287385345847" r="0.08834095633620694" fill="#000" />
			<circle cx="37.880230707268076" cy="15.089791447606284" r="0.0008910270409660109" fill="#000" />
			<circle cx="20.023031441657068" cy="8.166493525883894" r="0.0707184224369041" fill="#000" />
			<circle cx="21.079145528465617" cy="14.224259614582932" r="0.05165160621994838" fill="#000" />
			<circle cx="21.95056799193285" cy="17.80538565442079" r="0.05740599781257866" fill="#000" />
			<circle cx="36.710191149931894" cy="12.951389647189803" r="0.10052633748265583" fill="#000" />
			<circle cx="20.91287169656867" cy="18.225547547655108" r="0.027478615330877032" fill="#000" />
			<circle cx="25.59699907664683" cy="10.844263137227998" r="0.09491951139639444" fill="#000" />
			<circle cx="32.17683178335172" cy="1.6695559307903292" r="0.00271786789597471" fill="#000" />
			<circle cx="9.5255469545925" cy="3.9428701974215716" r="0.00844079317450902" fill="#000" />
			<circle cx="40.65149427042836" cy="4.12618027700052" r="0.06223796561298585" fill="#000" />
			<circle cx="4.3273531574835165" cy="14.40908071387901" r="0.02293351138413728" fill="#000" />
			<circle cx="10.156723269285006" cy="11.675560320496139" r="0.05199639526837327" fill="#000" />
			<circle cx="11.959658232145948" cy="17.96904207798921" r="0.11351393105814003" fill="#000" />
			<circle cx="34.76910136978842" cy="3.3865603392375387" r="0.008557782027767954" fill="#000" />
			<circle cx="15.073653518433153" cy="6.400507225688481" r="0.080341487218789" fill="#000" />
			<circle cx="12.367027325044754" cy="13.72087005663125" r="0.12015935194228408" fill="#000" />
			<circle cx="24.979398934209733" cy="10.537057617164034" r="0.008549349189673316" fill="#000" />
			<circle cx="41.08712981326241" cy="3.638181226720094" r="0.012358818910694791" fill="#000" />
			<circle cx="0.46307509633716637" cy="17.002718714685063" r="0.0578172089126017" fill="#000" />
			<circle cx="29.350995778286038" cy="4.873559310405381" r="0.08079784635928025" fill="#000" />
			<circle cx="36.394755003006665" cy="3.4114968897340447" r="0.09475589205327631" fill="#000" />
			<circle cx="7.4169835188173545" cy="5.7281546144245175" r="0.08642497522988198" fill="#000" />
			<circle cx="8.577875529792493" cy="6.434035911297807" r="0.11888770300532621" fill="#000" />
			<circle cx="5.397757463611759" cy="6.314958590130927" r="0.03858906161709576" fill="#000" />
			<circle cx="35.9431321534708" cy="14.059700917986408" r="0.07111413301458126" fill="#000" />
			<circle cx="32.58102954047924" cy="8.599103552729789" r="0.07120440823710676" fill="#000" />
			<circle cx="34.213780335682664" cy="5.574550088045632" r="0.026294352990807734" fill="#000" />
			<circle cx="30.5859063003433" cy="15.862903514472155" r="0.0770901837722463" fill="#000" />
			<circle cx="27.743346378585702" cy="10.972113943129346" r="0.12250147128392092" fill="#000" />
			<circle cx="6.215614650968527" cy="11.51752148188898" r="0.04948017593647759" fill="#000" />
			<circle cx="1.7053886689419175" cy="1.858960824407312" r="0.10461918544727518" fill="#000" />
			<circle cx="20.331463265876796" cy="9.710710073380818" r="0.023425850715582522" fill="#000" />
			<circle cx="29.014399544781977" cy="1.520036264803288" r="0.07479269736881902" fill="#000" />
			<circle cx="8.113409336262958" cy="0.024555451074552148" r="0.0016191700386943564" fill="#000" />
			<circle cx="11.784191711351257" cy="17.397129901245034" r="0.07620721190709702" fill="#000" />
			<circle cx="41.40198658720518" cy="0.960263814087186" r="0.003207182151785476" fill="#000" />
			<circle cx="11.760964694253065" cy="6.837083208586104" r="0.022298304105393546" fill="#000" />
			<circle cx="25.099063445939613" cy="16.019358984606246" r="0.08442104148683652" fill="#000" />
			<circle cx="11.253673976759526" cy="10.706073264107477" r="0.033307430747026995" fill="#000" />
			<circle cx="27.010851402046107" cy="3.0921450013728675" r="0.04200002568707471" fill="#000" />
			<circle cx="29.291448706143854" cy="6.610260558966111" r="0.11558874910298357" fill="#000" />
			<circle cx="28.641046539574766" cy="5.297152636785466" r="0.0664810430939889" fill="#000" />
			<circle cx="20.08683362797867" cy="16.82696714260372" r="0.04750564414562372" fill="#000" />
			<circle cx="29.062458511625373" cy="1.8955394366056653" r="0.07366520110507252" fill="#000" />
			<circle cx="4.585367151757664" cy="3.8483025288680883" r="0.001161482895686225" fill="#000" />
			<circle cx="15.637963921424792" cy="15.203856616499051" r="0.029123944309175975" fill="#000" />
			<circle cx="32.971149057108576" cy="9.342952450826449" r="0.04902785291246063" fill="#000" />
			<circle cx="9.917181312598899" cy="4.787744782071771" r="0.10490500070482903" fill="#000" />
			<circle cx="25.51039836678696" cy="12.597363955094687" r="0.017498162032307363" fill="#000" />
			<circle cx="5.3888327151202855" cy="13.776224125473673" r="0.07242726248084856" fill="#000" />
			<circle cx="32.85184732549334" cy="3.067239393361449" r="0.1124464200964849" fill="#000" />
			<circle cx="20.22531287687899" cy="3.0900525097118567" r="0.06292590417200856" fill="#000" />
			<circle cx="3.416798008564081" cy="16.786622749753317" r="0.10384694018294574" fill="#000" />
			<circle cx="28.105998329574287" cy="16.902403604936733" r="0.04642368986577251" fill="#000" />
			<circle cx="7.0046296633939304" cy="13.919787673659158" r="0.0561408630610197" fill="#000" />
			<circle cx="11.938966945047605" cy="18.47690153704116" r="0.007054003600906911" fill="#000" />
			<circle cx="3.412236578920034" cy="3.4337218235230584" r="0.019329315027027005" fill="#000" />
			<circle cx="24.265189148783534" cy="5.2625546137152455" r="0.07804936793791001" fill="#000" />
			<circle cx="11.815312549750736" cy="15.052066388367503" r="0.031317170250719784" fill="#000" />
			<circle cx="6.7204813401635075" cy="2.004194772321493" r="0.11322485955663202" fill="#000" />
			<circle cx="28.750630350578504" cy="10.644318790718637" r="0.05938154919217685" fill="#000" />
			<circle cx="36.23795289791418" cy="4.075590885951029" r="0.025252761722429892" fill="#000" />
			<circle cx="28.6611901931138" cy="3.6836077243604715" r="0.05361946152896212" fill="#000" />
			<circle cx="20.852239788493318" cy="11.098649264737112" r="0.12039602322383877" fill="#000" />
			<circle cx="36.70780677560059" cy="16.382668475700136" r="0.08019690771074396" fill="#000" />
			<circle cx="20.582963671470765" cy="13.809332756709113" r="0.0817057801116106" fill="#000" />
			<circle cx="30.64016268389186" cy="3.6582896716232405" r="0.010318673608257667" fill="#000" />
			<circle cx="30.707186050614197" cy="6.842279407269037" r="0.0847386460266224" fill="#000" />
			<circle cx="38.04922282567772" cy="2.2025646151489253" r="0.12309005204637696" fill="#000" />
			<circle cx="28.00981833982997" cy="3.110544905778699" r="0.01645934211143417" fill="#000" />
			<circle cx="12.686975475586207" cy="13.258710864403533" r="0.07094286362476754" fill="#000" />
			<circle cx="27.364162732909087" cy="2.73619283511674" r="0.08799671598900644" fill="#000" />
			<circle cx="11.827084883790336" cy="18.330728613917984" r="0.0894565736165106" fill="#000" />
			<circle cx="32.59582265444055" cy="16.635383152231725" r="0.11251678118966464" fill="#000" />
			<circle cx="5.34994082448652" cy="13.016124961610975" r="0.07567843080706868" fill="#000" />
			<circle cx="9.658562899615026" cy="17.830075647627993" r="0.06364903423510285" fill="#000" />
			<circle cx="7.772716962923063" cy="1.973531234747309" r="0.09201298727758242" fill="#000" />
			<circle cx="26.236907542381363" cy="17.033870298064233" r="0.0040401586439772486" fill="#000" />
			<circle cx="21.800800682477778" cy="0.03874831608315965" r="0.04304947067541502" fill="#000" />
			<circle cx="40.595861585392775" cy="8.475307935260236" r="0.002942038309554501" fill="#000" />
			<circle cx="34.772488744312774" cy="17.94586207483094" r="0.11938210009743117" fill="#000" />
			<circle cx="12.403517588894445" cy="3.64197441395376" r="0.04583948842700364" fill="#000" />
			<circle cx="18.90950607835607" cy="12.116902526795931" r="0.056520201467309" fill="#000" />
			<circle cx="33.39860702101593" cy="17.71891786577045" r="0.010346408941708962" fill="#000" />
			<circle cx="39.90260631951219" cy="2.360724742037683" r="0.03653651674292903" fill="#000" />
			<circle cx="1.6076848230520497" cy="7.612859915071464" r="0.06512724541597671" fill="#000" />
			<circle cx="19.106993277986177" cy="11.545708187454107" r="0.05013338598657208" fill="#000" />
			<circle cx="4.862795096505896" cy="15.70030921854864" r="0.08330114547976568" fill="#000" />
			<circle cx="0.4482818750404054" cy="17.007970174777817" r="0.0766859021344577" fill="#000" />
			<circle cx="25.558083305564498" cy="4.967827984371546" r="0.06793770765391798" fill="#000" />
			<circle cx="24.19957844298645" cy="18.85903350259482" r="0.08182064527769224" fill="#000" />
			<circle cx="15.645155127877505" cy="18.188734539187585" r="0.12340309896020149" fill="#000" />
			<circle cx="5.530917599273229" cy="11.170892355667705" r="0.08180658004708592" fill="#000" />
			<circle cx="32.8270081782311" cy="13.247406572643179" r="0.07333668751364035" fill="#000" />
			<circle cx="24.497179810585777" cy="6.961107311923245" r="0.08351463739402191" fill="#000" />
			<circle cx="4.523326429682364" cy="6.291511228367014" r="0.019430435501037277" fill="#000" />
			<circle cx="5.155975617985057" cy="2.336377853656403" r="0.11734899460761912" fill="#000" />
			<circle cx="24.641166763286222" cy="0.9623937538485" r="0.011900349832660195" fill="#000" />
			<circle cx="40.01798904087008" cy="17.8138429967786" r="0.0692358328812832" fill="#000" />
			<circle cx="2.859091448572868" cy="9.647076567106508" r="0.09013922834786983" fill="#000" />
			<circle cx="19.297533958254554" cy="11.828506610727121" r="0.11896997144224178" fill="#000" />
			<circle cx="23.329525504548947" cy="0.7309002145843626" r="0.09595519813838385" fill="#000" />
			<circle cx="11.300268378671406" cy="12.156574429293016" r="0.11583338511529682" fill="#000" />
			<circle cx="25.336088790713156" cy="11.066996698203614" r="0.0008775330859748104" fill="#000" />
			<circle cx="31.415709032141766" cy="10.473017490989008" r="0.01391428408736671" fill="#000" />
			<circle cx="37.00725399065746" cy="9.90497654938209" r="0.08524433223750405" fill="#000" />
			<circle cx="10.970655598971085" cy="18.326409671034334" r="0.08751413052583648" fill="#000" />
			<circle cx="18.931639166617632" cy="13.63514619292445" r="0.07594250994678452" fill="#000" />
			<circle cx="8.661277203375237" cy="5.463977534228784" r="0.07370989680981009" fill="#000" />
			<circle cx="28.45221419119406" cy="0.19958341143666158" r="0.0883622498456772" fill="#000" />
			<circle cx="11.963400943276696" cy="7.540517329765382" r="0.04263336048285163" fill="#000" />
			<circle cx="24.574411919334885" cy="16.994045372715984" r="0.015638241903388084" fill="#000" />
			<circle cx="13.109328632003134" cy="9.533167103091008" r="0.060098851645062276" fill="#000" />
			<circle cx="23.78881545294477" cy="15.35080443268343" r="0.06278199044976394" fill="#000" />
			<circle cx="11.166412482550495" cy="17.934405437791717" r="0.10842666486019568" fill="#000" />
			<circle cx="6.539570649277408" cy="1.3292648443147912" r="0.039069247081842146" fill="#000" />
			<circle cx="23.474893993956215" cy="7.816329549720133" r="0.11540125658816942" fill="#000" />
			<circle cx="30.523570874031552" cy="4.734321401739497" r="0.08756057493653252" fill="#000" />
			<circle cx="31.902042197426013" cy="3.2423359885243426" r="0.020126039903707843" fill="#000" />
			<circle cx="11.366142521414046" cy="0.9930822374260813" r="0.01762859998333191" fill="#000" />
			<circle cx="8.788183890457434" cy="16.148237576780783" r="0.10415031518155335" fill="#000" />
			<circle cx="40.44775902756286" cy="0.9363671430180196" r="0.06127514472845717" fill="#000" />
			<circle cx="33.22055790568665" cy="10.443877633033686" r="0.012961584216782215" fill="#000" />
			<circle cx="20.334689491098963" cy="14.571609094312917" r="0.08784561273879864" fill="#000" />
			<circle cx="9.842757774879114" cy="18.150263478175383" r="0.024953864927990024" fill="#000" />
			<circle cx="9.174716084619973" cy="13.432613181022624" r="0.09651407752536179" fill="#000" />
			<circle cx="41.93701178887527" cy="6.998892610529866" r="0.0816103459842908" fill="#000" />
			<circle cx="20.17121823985962" cy="13.098889927777838" r="0.044102845380348504" fill="#000" />
			<circle cx="25.591897909287933" cy="0.950239370786343" r="0.1061695809586463" fill="#000" />
			<circle cx="32.493986945187494" cy="0.8282222246455881" r="0.09015512747635986" fill="#000" />
			<circle cx="41.1978908430727" cy="12.780081021095679" r="0.037570202845864334" fill="#000" />
			<circle cx="14.402388028408087" cy="15.597108524482065" r="0.05733181328120697" fill="#000" />
			<circle cx="35.333538992230665" cy="3.615202566205726" r="0.07819742593753175" fill="#000" />
			<circle cx="37.72446003272784" cy="11.892328682386644" r="0.02330285443155157" fill="#000" />
			<circle cx="37.31036814287425" cy="4.9145832276250125" r="0.00935623052903066" fill="#000" />
			<circle cx="22.88813324039056" cy="0.4617034318264147" r="0.08573629003485526" fill="#000" />
			<circle cx="24.488277134723575" cy="11.553702874323914" r="0.11677867443852838" fill="#000" />
			<circle cx="14.8259548834513" cy="17.010664663125752" r="0.06290635310679567" fill="#000" />
			<circle cx="6.841027628015617" cy="15.253141924228215" r="0.06308106844789474" fill="#000" />
			<circle cx="19.79947950509843" cy="3.4727038055686634" r="0.009447452050530006" fill="#000" />
			<circle cx="1.6252787019441266" cy="15.450368970863213" r="0.12018132906248381" fill="#000" />
			<circle cx="34.16273501303573" cy="15.99366370453126" r="0.004112527641455199" fill="#000" />
			<circle cx="5.74533390112296" cy="18.528016852309374" r="0.0020449065358262297" fill="#000" />
			<circle cx="9.37207117340324" cy="9.311045106712132" r="0.09696118219553948" fill="#000" />
			<circle cx="8.715979573022937" cy="11.285988357309622" r="0.05204117138875375" fill="#000" />
			<circle cx="20.499935935760348" cy="0.5629218245337865" r="0.12008300478698412" fill="#000" />
			<circle cx="12.162140510734355" cy="10.777481571164111" r="0.07333788649572608" fill="#000" />
			<circle cx="11.187505300569034" cy="0.6360592690365638" r="0.048328019937908265" fill="#000" />
			<circle cx="5.311048189215056" cy="17.788632737834558" r="0.10323774401710292" fill="#000" />
			<circle cx="12.444462923706283" cy="11.756518127315859" r="0.01881446713420759" fill="#000" />
			<circle cx="5.480677592888742" cy="5.887234746660566" r="0.0777355111851453" fill="#000" />
			<circle cx="29.204789297283973" cy="9.89095497346492" r="0.11954948586141355" fill="#000" />
			<circle cx="33.1738882857814" cy="11.429232634496973" r="0.09024025296456341" fill="#000" />
			<circle cx="11.327578437597474" cy="8.90969655250073" r="0.07942609578720926" fill="#000" />
			<circle cx="4.462953715283731" cy="8.391293262584997" r="0.08258157613195173" fill="#000" />
			<circle cx="20.496742543260094" cy="11.308949532645958" r="0.010299540551520311" fill="#000" />
			<circle cx="31.598936431451435" cy="15.936323689090962" r="0.10098039021259002" fill="#000" />
			<circle cx="29.491470167930803" cy="17.993476270560432" r="0.10458367288269799" fill="#000" />
			<circle cx="15.21960168292483" cy="17.90041348331248" r="0.009575205701912615" fill="#000" />
			<circle cx="16.174137745469295" cy="3.624587818501473" r="0.01411168078800007" fill="#000" />
			<circle cx="19.214527081668948" cy="0.6165804576202011" r="0.05511372475765185" fill="#000" />
			<circle cx="33.88220363857813" cy="15.421051997420248" r="0.03215694256829367" fill="#000" />
			<circle cx="35.10109115841628" cy="12.181842588988209" r="0.08749013456090107" fill="#000" />
			<circle cx="1.8245210778873104" cy="8.13439733868968" r="0.02682706779971991" fill="#000" />
			<circle cx="34.90956650022908" cy="6.859576252197581" r="0.055239557947034" fill="#000" />
			<circle cx="29.789860168332925" cy="18.858538930521107" r="0.08023878775767304" fill="#000" />
			<circle cx="23.599324251053638" cy="10.63203374737636" r="0.07573859545082702" fill="#000" />
			<circle cx="6.13040876820259" cy="9.641649347029707" r="0.05704581215683663" fill="#000" />
			<circle cx="35.691010979598445" cy="17.229098777330133" r="0.12201764274690363" fill="#000" />
			<circle cx="31.373570151102598" cy="14.101710526491406" r="0.12068068576229043" fill="#000" />
			<circle cx="41.210259349479095" cy="0.3784253015168375" r="0.040539215890278854" fill="#000" />
			<circle cx="1.166754319842947" cy="10.088175020160044" r="0.00462284538012013" fill="#000" />
			<circle cx="7.446487260091451" cy="8.302733092637544" r="0.002808346005378881" fill="#000" />
			<circle cx="3.8178703856558176" cy="5.387222528272025" r="0.09248657458452139" fill="#000" />
			<circle cx="20.272182939466127" cy="7.630863381862501" r="0.10973049588335318" fill="#000" />
			<circle cx="14.030903025878361" cy="13.144066843144586" r="0.10157650769461869" fill="#000" />
			<circle cx="28.812716898012297" cy="0.394592185605253" r="0.03424574394761978" fill="#000" />
			<circle cx="16.676143697195258" cy="3.0257314538707956" r="0.10892814862201404" fill="#000" />
			<circle cx="8.698204646344125" cy="16.50810349878479" r="0.12116940461423432" fill="#000" />
			<circle cx="21.20232377593334" cy="12.690926603808967" r="0.025573944474780994" fill="#000" />
			<circle cx="1.2412527442790322" cy="10.31244987287413" r="0.02679241431561641" fill="#000" />
			<circle cx="35.00867573839483" cy="5.561082916277554" r="0.056049584135775196" fill="#000" />
			<circle cx="27.982472754534843" cy="11.434773421164557" r="0.03559905027994825" fill="#000" />
			<circle cx="28.867567492573386" cy="11.125892300000817" r="0.047842954298949136" fill="#000" />
			<circle cx="12.473842772676068" cy="18.863637630919033" r="0.08034092163543859" fill="#000" />
			<circle cx="30.688363155517493" cy="14.872237111118249" r="0.07705445783096015" fill="#000" />
			<circle cx="17.885996802167487" cy="9.430176638331222" r="0.12362350001655484" fill="#000" />
			<circle cx="5.1682710024487815" cy="11.505120360873196" r="0.10995710090489831" fill="#000" />
			<circle cx="39.066636998013415" cy="18.640927151368963" r="0.08212412304835104" fill="#000" />
			<circle cx="5.208434514490684" cy="3.8767421993981275" r="0.0088282983826595" fill="#000" />
			<circle cx="40.91006558324221" cy="11.217792655319355" r="0.11677372435470373" fill="#000" />
			<circle cx="23.142459778248707" cy="17.98795370671413" r="0.007524086517792211" fill="#000" />
			<circle cx="32.98889043266725" cy="14.18705551379645" r="0.0012598633269035875" fill="#000" />
			<circle cx="3.4774546039753416" cy="7.18533263936265" r="0.11069060684403832" fill="#000" />
			<circle cx="18.807249915091333" cy="1.124860664963887" r="0.05161492134601989" fill="#000" />
			<circle cx="30.48784394848339" cy="3.7458057714063764" r="0.02706167521939004" fill="#000" />
			<circle cx="32.75296173819689" cy="5.813004091203341" r="0.07072694186968016" fill="#000" />
			<circle cx="6.903715691440899" cy="1.7787258068753067" r="0.12039481053280354" fill="#000" />
			<circle cx="29.806723580877005" cy="13.83686451844133" r="0.10352305975111468" fill="#000" />
			<circle cx="21.417193398824118" cy="0.029668904076850522" r="0.06116828791150672" fill="#000" />
			<circle cx="4.973173609394789" cy="14.936865632942604" r="0.11638865519347301" fill="#000" />
			<circle cx="14.48302805536298" cy="7.400437510926966" r="0.010620675378028188" fill="#000" />
			<circle cx="19.876062323361246" cy="9.191354731905415" r="0.0906488136298913" fill="#000" />
			<circle cx="31.5644591256554" cy="14.684412811636587" r="0.041264119081165146" fill="#000" />
			<circle cx="19.571573775427378" cy="8.650051267496687" r="0.06541008661354143" fill="#000" />
			<circle cx="9.393938024524063" cy="11.7263098657696" r="0.0225050245783361" fill="#000" />
			<circle cx="9.78706925706489" cy="3.9132551707232963" r="0.009303668480452415" fill="#000" />
			<circle cx="39.82027018527575" cy="15.796522503195622" r="0.07245481150568761" fill="#000" />
			<circle cx="11.213094704204387" cy="9.66036077467398" r="0.02419950945028751" fill="#000" />
			<circle cx="13.100729583480668" cy="14.401881049391967" r="0.10753245157688006" fill="#000" />
			<circle cx="17.25997960821892" cy="4.444375037276514" r="0.11173961389017219" fill="#000" />
			<circle cx="26.257314233427014" cy="6.644085085416559" r="0.004207291407614611" fill="#000" />
			<circle cx="35.33799855617974" cy="8.09315966363889" r="0.03945960804228918" fill="#000" />
			<circle cx="33.1373551136397" cy="14.44713179512457" r="0.019184759658959827" fill="#000" />
			<circle cx="8.627895296711092" cy="9.40143987575617" r="0.09604189679579261" fill="#000" />
			<circle cx="36.694253565754686" cy="2.5114386796993142" r="0.07610783584407924" fill="#000" />
			<circle cx="39.675414453760155" cy="17.064352855956578" r="0.06724939469363614" fill="#000" />
			<circle cx="8.800698274095335" cy="3.2630192041326858" r="0.012365665064802911" fill="#000" />
			<circle cx="14.000314306500098" cy="2.74942349380081" r="0.07989818667871419" fill="#000" />
			<circle cx="36.44145873947434" cy="2.801939939930765" r="0.013106496611204749" fill="#000" />
			<circle cx="25.580714493580047" cy="17.219705548599723" r="0.10498671820122735" fill="#000" />
			<circle cx="4.260969140991206" cy="5.564769777255584" r="0.12172473889943698" fill="#000" />
			<circle cx="38.945021572356524" cy="16.178669780814733" r="0.006423568802698829" fill="#000" />
			<circle cx="9.143291312281605" cy="17.401453143742277" r="0.06104096283412701" fill="#000" />
			<circle cx="21.89236184889642" cy="18.820111161137135" r="0.11628407235448424" fill="#000" />
			<circle cx="4.0603217898664115" cy="1.485756476877477" r="0.05252653271162522" fill="#000" />
			<circle cx="11.895111427251404" cy="8.971715892319708" r="0.00047639028404923567" fill="#000" />
			<circle cx="5.063912098181125" cy="15.901604512627712" r="0.06780733310090509" fill="#000" />
			<circle cx="8.626294556519259" cy="0.6889900244771838" r="0.00041205778704325735" fill="#000" />
			<circle cx="18.035374035523358" cy="5.284025079826472" r="0.11328163525889265" fill="#000" />
			<circle cx="2.1682009696622426" cy="0.2606747173216418" r="0.11721129376537372" fill="#000" />
			<circle cx="18.22170865638227" cy="5.900769617132435" r="0.09169693498273385" fill="#000" />
			<circle cx="17.873706494514543" cy="15.853826918305934" r="0.05168910236622229" fill="#000" />
			<circle cx="38.81253759527077" cy="12.212759099344847" r="0.04147356366145012" fill="#000" />
			<circle cx="22.133496380796227" cy="16.55603671270695" r="0.12125408144149652" fill="#000" />
			<circle cx="16.218313132665415" cy="14.013109026627625" r="0.050176966156439795" fill="#000" />
			<circle cx="14.953269893493095" cy="15.29763963949777" r="0.013060860888278306" fill="#000" />
			<circle cx="22.870327804129925" cy="7.555836972090708" r="0.10052653761912218" fill="#000" />
			<circle cx="5.185632521970403" cy="4.102856551646005" r="0.04277565038371069" fill="#000" />
			<circle cx="25.32676900805714" cy="15.415250363372182" r="0.11819954480649873" fill="#000" />
			<circle cx="8.93642859017633" cy="12.173396003031336" r="0.05781303670109454" fill="#000" />
			<circle cx="34.69962141830751" cy="0.16355967797382498" r="0.11382219715270271" fill="#000" />
			<circle cx="36.66486829116154" cy="15.196142793675879" r="0.033224862830007945" fill="#000" />
			<circle cx="33.2169077037717" cy="7.81550386149361" r="0.022357090055082365" fill="#000" />
			<circle cx="15.3066064417728" cy="9.479837746610675" r="0.06017832759054652" fill="#000" />
			<circle cx="0.4678584366699441" cy="14.167118311297282" r="0.11227504742483296" fill="#000" />
			<circle cx="33.76401002601627" cy="0.47439267218303927" r="0.020425435924496" fill="#000" />
			<circle cx="16.980360513328215" cy="16.72024759743718" r="0.08669426371136438" fill="#000" />
			<circle cx="10.60684101388559" cy="18.42008716805383" r="0.033747149231057136" fill="#000" />
			<circle cx="14.200044956213809" cy="17.5280271588504" r="0.11605495117733902" fill="#000" />
			<circle cx="5.997525013407788" cy="16.88921584462583" r="0.11688301922663885" fill="#000" />
			<circle cx="14.026044824310945" cy="16.512505362057617" r="0.077365848367242" fill="#000" />
			<circle cx="40.85111473037997" cy="5.813739550163483" r="0.12240862661346039" fill="#000" />
			<circle cx="34.36766830738594" cy="8.699328425178862" r="0.010690970252462129" fill="#000" />
			<circle cx="32.529756404843575" cy="18.71083889909808" r="0.09850667363952219" fill="#000" />
			<circle cx="31.41482029005713" cy="3.2537613725426064" r="0.013635397534306315" fill="#000" />
			<circle cx="27.104885267254055" cy="17.772654277826092" r="0.10067212866133458" fill="#000" />
			<circle cx="33.84968093209468" cy="10.581981097038156" r="0.05904434304365884" fill="#000" />
			<circle cx="6.1307848637920905" cy="3.1896552393192117" r="0.06197941198832241" fill="#000" />
			<circle cx="27.20568500168723" cy="14.47868987810963" r="0.039910022423498684" fill="#000" />
			<circle cx="27.296679936832426" cy="16.690653390763835" r="0.08770821176032279" fill="#000" />
			<circle cx="8.286456582475642" cy="13.20781053593019" r="0.10537331321795514" fill="#000" />
			<circle cx="5.935044162273936" cy="6.384336193457984" r="0.03822358508202059" fill="#000" />
			<circle cx="19.25772970484155" cy="15.87982649828046" r="0.0646429318793604" fill="#000" />
			<circle cx="41.976490202146294" cy="9.777216959768564" r="0.0627116643162385" fill="#000" />
			<circle cx="8.997702127398219" cy="7.484214078361548" r="0.06344150266918479" fill="#000" />
			<circle cx="6.546500339814548" cy="10.660935234273513" r="0.09104433770178091" fill="#000" />
			<circle cx="10.761633023144089" cy="12.404294099735246" r="0.11741878204234382" fill="#000" />
			<circle cx="4.949324879596253" cy="14.696021848850503" r="0.048382681499944805" fill="#000" />
			<circle cx="39.71103995624804" cy="11.79019855793472" r="0.04058309051441773" fill="#000" />
			<circle cx="17.997230509041245" cy="17.195888195941542" r="0.06408545716981903" fill="#000" />
			<circle cx="30.319648844401616" cy="8.034199941832181" r="0.07505087761052699" fill="#000" />
			<circle cx="27.57387102306458" cy="12.386229107130633" r="0.042535280421981056" fill="#000" />
			<circle cx="39.66590763584082" cy="1.3851226897871234" r="0.06891312356458598" fill="#000" />
			<circle cx="18.07862471753423" cy="6.939419353995932" r="0.059285519348185586" fill="#000" />
			<circle cx="22.047687649239627" cy="11.557724269565188" r="0.017444794013112858" fill="#000" />
			<circle cx="9.055014995365871" cy="10.043107077464322" r="0.08801654813967903" fill="#000" />
			<circle cx="9.207219912447604" cy="5.473933679572983" r="0.09720133618419173" fill="#000" />
			<circle cx="26.128393282995486" cy="5.411921308132433" r="0.03910876244248565" fill="#000" />
			<circle cx="22.239285232163684" cy="15.412279576300252" r="0.0687047845980005" fill="#000" />
			<circle cx="16.156303406826396" cy="1.3927791919729455" r="0.04348498745908548" fill="#000" />
			<circle cx="3.383134507040758" cy="10.346247362391802" r="0.05677695550810427" fill="#000" />
			<circle cx="7.048634224187053" cy="4.10291401787293" r="0.05333545062712303" fill="#000" />
			<circle cx="28.747411346523858" cy="2.4863301971163434" r="0.01632431390387784" fill="#000" />
			<circle cx="29.396747693849814" cy="11.793167624837336" r="0.032421310478909865" fill="#000" />
			<circle cx="29.625414230717542" cy="12.285925702916536" r="0.052847496892444126" fill="#000" />
			<circle cx="2.3404292431719655" cy="10.21543445194289" r="0.04117879423487447" fill="#000" />
			<circle cx="8.069039237897043" cy="18.085666824053693" r="0.11737339450783571" fill="#000" />
			<circle cx="34.62296264392931" cy="14.706616610595217" r="0.0470090265583043" fill="#000" />
			<circle cx="26.506502171570492" cy="16.28007092246047" r="0.004071292719334513" fill="#000" />
			<circle cx="36.94428705407411" cy="4.027849028970781" r="0.025813591278080653" fill="#000" />
			<circle cx="38.93836381361252" cy="7.903792440043485" r="0.045894404053966775" fill="#000" />
			<circle cx="36.49544989332189" cy="13.690365214627818" r="0.03310075197550798" fill="#000" />
			<circle cx="3.5669987402669343" cy="1.3471627225334255" r="0.07191076869407009" fill="#000" />
			<circle cx="26.9899539485891" cy="11.394430832913567" r="0.00602832705648676" fill="#000" />
			<circle cx="38.694769907549755" cy="16.931088748373664" r="0.11125085456136337" fill="#000" />
			<circle cx="31.249185958168425" cy="6.955961818901517" r="0.12149200392945002" fill="#000" />
			<circle cx="14.597460004940137" cy="13.476833449942514" r="0.12330273351019085" fill="#000" />
			<circle cx="9.78377988493684" cy="10.666699958737144" r="0.0335527109988428" fill="#000" />
			<circle cx="4.534553665584415" cy="18.030303333739095" r="0.11865692220695058" fill="#000" />
			<circle cx="36.269850382509624" cy="0.3740646353591006" r="0.05150083364814864" fill="#000" />
			<circle cx="1.10485527251809" cy="11.31685624348652" r="0.05432275070874472" fill="#000" />
			<circle cx="16.014952015999544" cy="6.744111487266682" r="0.0711161189867766" fill="#000" />
			<circle cx="9.012349455367156" cy="8.671100597213293" r="0.10314682264477562" fill="#000" />
			<circle cx="34.71013581028477" cy="1.729703316850633" r="0.0845630005135509" fill="#000" />
			<circle cx="24.933782695862284" cy="2.595338511426024" r="0.09851274202764058" fill="#000" />
			<circle cx="35.42977140173168" cy="17.7748376144571" r="0.02843678310242198" fill="#000" />
			<circle cx="7.843500871227961" cy="18.261983383773856" r="0.006658805250059532" fill="#000" />
			<circle cx="14.293334291334174" cy="17.61280857438284" r="8.200201486785463e-06" fill="#000" />
			<circle cx="3.8148624365508326" cy="18.32122059862447" r="0.04762965566905161" fill="#000" />
			<circle cx="29.972800444135306" cy="6.398077089517529" r="0.09592385723198457" fill="#000" />
			<circle cx="0.42729119476883803" cy="0.3929792892299998" r="0.02231897708002066" fill="#000" />
			<circle cx="41.56295142201631" cy="6.79991641121558" r="0.12460459243855151" fill="#000" />
			<circle cx="11.800094998385996" cy="15.736743291613271" r="0.0072628899118810375" fill="#000" />
			<circle cx="35.81162447612624" cy="5.2272729725827" r="0.06783592029346247" fill="#000" />
			<circle cx="11.150289790845335" cy="6.418545198906177" r="0.11288015331137281" fill="#000" />
			<circle cx="7.916125243059575" cy="9.218838029260517" r="0.05251217392820774" fill="#000" />
			<circle cx="25.00210257894289" cy="5.614148944697985" r="0.06089946392472151" fill="#000" />
			<circle cx="25.439067615620843" cy="15.325967207266304" r="0.0026501794283492197" fill="#000" />
			<circle cx="15.625032833771936" cy="18.64306160854638" r="0.07711501912240078" fill="#000" />
			<circle cx="30.99922064795355" cy="12.013358398596612" r="0.0019472973477136502" fill="#000" />
			<circle cx="27.812695922343348" cy="16.8451288097012" r="0.056201251769597976" fill="#000" />
			<circle cx="12.743588833044711" cy="9.560112111238992" r="0.07832938733979085" fill="#000" />
			<circle cx="28.72323593215349" cy="3.3942333894220895" r="0.04514613450862781" fill="#000" />
			<circle cx="31.251353303855225" cy="6.7438253019040975" r="0.08823782757817951" fill="#000" />
			<circle cx="38.40417662538313" cy="13.979656518266522" r="0.07894852647623105" fill="#000" />
			<circle cx="21.64710909828373" cy="2.1393249847565228" r="0.08201205527745778" fill="#000" />
			<circle cx="24.61273227024585" cy="6.140331130689954" r="0.12116029570248997" fill="#000" />
			<circle cx="28.17407122926426" cy="12.697194812071155" r="0.027166346155009624" fill="#000" />
			<circle cx="30.000408951926797" cy="6.230118182055921" r="0.016252714560951842" fill="#000" />
			<circle cx="25.460743568603043" cy="14.052469596545995" r="0.1146887659884644" fill="#000" />
			<circle cx="21.799960350473718" cy="6.265086935169121" r="0.0773629287935174" fill="#000" />
			<circle cx="20.962122928164543" cy="7.610923714323505" r="0.121017353042964" fill="#000" />
			<circle cx="40.77432520887167" cy="6.102461439985741" r="0.0848742105235415" fill="#000" />
			<circle cx="19.28705610912364" cy="2.793000507811974" r="0.05388202789439579" fill="#000" />
			<circle cx="9.428695408445757" cy="5.755213510407056" r="0.08274866735922744" fill="#000" />
			<circle cx="0.14478599568233252" cy="8.415559856122739" r="0.05119554017341041" fill="#000" />
			<circle cx="3.7443900381376856" cy="17.64685264570076" r="0.030602837642822983" fill="#000" />
			<circle cx="24.277938171222768" cy="0.9767552477568502" r="0.12487364410402975" fill="#000" />
			<circle cx="4.786767643056541" cy="4.2969163656899045" r="0.10377739675186894" fill="#000" />
			<circle cx="25.937759883657836" cy="3.7083233113559997" r="0.01555442508568608" fill="#000" />
			<circle cx="14.057140875790662" cy="18.55622333460281" r="0.02542648267325466" fill="#000" />
			<circle cx="24.211168132039315" cy="8.049068577067004" r="0.041615383691015306" fill="#000" />
			<circle cx="25.012642750579747" cy="0.03864915272523628" r="0.026344786935962677" fill="#000" />
			<circle cx="11.470397063449997" cy="8.694553985842415" r="0.05775199177755545" fill="#000" />
			<circle cx="6.917290552177606" cy="15.337407017836298" r="0.04846188079607534" fill="#000" />
			<circle cx="35.38698637484603" cy="12.879516605601124" r="0.05806577854095846" fill="#000" />
			<circle cx="2.933620439491953" cy="4.46920147997637" r="0.05708937583511699" fill="#000" />
			<circle cx="36.25692079131535" cy="17.926478391443087" r="0.10444501898464821" fill="#000" />
			<circle cx="20.647937802875653" cy="9.731065796131452" r="0.024939054048938702" fill="#000" />
			<circle cx="2.587913903192236" cy="12.35612438801094" r="0.05304469718396186" fill="#000" />
			<circle cx="17.317894614158245" cy="17.864979845882452" r="0.08716333566274098" fill="#000" />
			<circle cx="25.747254340319664" cy="9.324176635872803" r="0.012966992007785727" fill="#000" />
			<circle cx="38.27223678281052" cy="8.507470838269338" r="0.0015743753624039986" fill="#000" />
			<circle cx="25.170840436186978" cy="1.7825906883693048" r="0.09288494456700053" fill="#000" />
			<circle cx="2.080757423646906" cy="1.8036778059306005" r="0.015064984842827145" fill="#000" />
			<circle cx="5.754794381547931" cy="13.658302533830733" r="0.022585359543311576" fill="#000" />
			<circle cx="19.41583445767192" cy="14.27413617942937" r="0.029798930835337967" fill="#000" />
			<circle cx="39.7046192563568" cy="7.711960773937722" r="0.09822326980098751" fill="#000" />
			<circle cx="18.08306033912778" cy="13.358464008121025" r="0.11787999054954935" fill="#000" />
			<circle cx="35.5007512281394" cy="2.5567745197624925" r="0.010163465711981429" fill="#000" />
			<circle cx="10.362305964133526" cy="4.958833833297278" r="0.010859568820145049" fill="#000" />
			<circle cx="14.049917310613376" cy="3.0031550042907402" r="0.03761148154727925" fill="#000" />
			<circle cx="0.6624217602680598" cy="17.062299152815786" r="0.017521854678270984" fill="#000" />
			<circle cx="41.3224976668552" cy="7.950094930701652" r="0.08650310332811727" fill="#000" />
			<circle cx="0.24309422725983265" cy="16.138695923972037" r="0.00019520983954073035" fill="#000" />
			<circle cx="37.23956466332264" cy="5.9821831271440615" r="0.1200529907709371" fill="#000" />
			<circle cx="21.36240182610149" cy="2.0181998874483367" r="0.04135239104656717" fill="#000" />
			<circle cx="0.7250679922427701" cy="3.762065881886609" r="0.09634898867241576" fill="#000" />
			<circle cx="16.59109832504957" cy="13.904110519726489" r="0.04089869385072001" fill="#000" />
			<circle cx="38.52855522247191" cy="14.79617073978541" r="0.11001585442177769" fill="#000" />
			<circle cx="4.036250123029692" cy="7.799204177217181" r="0.06936877128380065" fill="#000" />
			<circle cx="29.84577172909737" cy="16.89056500254697" r="0.016580533691555224" fill="#000" />
			<circle cx="39.12405071729776" cy="3.8261295240933775" r="0.04062753380136597" fill="#000" />
			<circle cx="30.717580561883356" cy="12.375787967653231" r="0.0027105143567331125" fill="#000" />
			<circle cx="16.14640390692673" cy="17.892917342260425" r="0.07486752236534092" fill="#000" />
			<circle cx="34.23971394184056" cy="14.059573686042228" r="0.006895268064460142" fill="#000" />
			<circle cx="1.3767904835294926" cy="16.69928854242786" r="0.11298595457230438" fill="#000" />
			<circle cx="1.9632353413902686" cy="16.43925649823705" r="0.006872772959107293" fill="#000" />
			<circle cx="8.033943704839666" cy="7.840138844013527" r="0.10137048606448432" fill="#000" />
			<circle cx="40.42011242379038" cy="16.77902115223761" r="0.11419718105322013" fill="#000" />
			<circle cx="20.69794877989795" cy="10.435196401046092" r="0.007620911755608084" fill="#000" />
			<circle cx="29.011147000642893" cy="3.8314828852508622" r="0.06690074312284817" fill="#000" />
			<circle cx="32.09311442443155" cy="0.1827835627412978" r="0.08618754651952243" fill="#000" />
			<circle cx="37.31569879277989" cy="12.213056435075988" r="0.12433206752168831" fill="#000" />
			<circle cx="5.293986715965286" cy="18.25229054199537" r="0.08638817671893424" fill="#000" />
			<circle cx="2.6087279153513494" cy="17.50449021303791" r="0.024895384466390905" fill="#000" />
			<circle cx="3.97930673012697" cy="17.71368742308956" r="0.07809954584773691" fill="#000" />
			<circle cx="17.7137041518152" cy="15.720616060350498" r="0.03795447534172898" fill="#000" />
			<circle cx="1.6389587252887265" cy="14.302374631716384" r="0.03487473902826842" fill="#000" />
			<circle cx="29.347447580268618" cy="16.37490122437665" r="0.07879798917649485" fill="#000" />
			<circle cx="8.54506765059937" cy="13.57925855841351" r="0.07450138754356898" fill="#000" />
			<circle cx="7.654065505863511" cy="18.119540654520158" r="0.051019292195751964" fill="#000" />
			<circle cx="33.9656558660425" cy="17.116799406566276" r="0.07658691103845698" fill="#000" />
			<circle cx="36.2661513696119" cy="0.145675199522331" r="0.10760336434415846" fill="#000" />
			<circle cx="19.238204586448703" cy="1.8786767475162658" r="0.02689142632835287" fill="#000" />
			<circle cx="31.453478527486915" cy="10.708487909995844" r="0.10948941124685713" fill="#000" />
			<circle cx="21.35080619399891" cy="14.984204180370485" r="0.06871883445830491" fill="#000" />
			
			there are already stars in the background		
			
			-->
		</mask>
		<text id="mytext" x="55%" dominant-baseline="middle" text-anchor="middle" font-size="7.5px" class="outline">
	    	<tspan class="tspan0" text-anchor="middle" y="25%">Discord</tspan>
    		<tspan class="tspan1" x="50%" dy="0.9375em">Wars</tspan>
	  	</text>
	  	<text id="mytext_outlineless" x="55%" dominant-baseline="middle" text-anchor="middle" font-size="7.5px" class="outlineless">
	    	<tspan class="tspan0" text-anchor="middle" y="25%">Discord</tspan>
    		<tspan class="tspan1" x="50%" dy="0.9375em">Wars</tspan>
	  	</text>
  	</defs>
  	<use href="#mytext" mask="url('#stars')"/>
</svg>
